<?xml version="1.0" encoding="utf-8"?>
<!-- Generator: Adobe Illustrator 21.1.0, SVG Export Plug-In . SVG Version: 6.00 Build 0)  -->
<svg version="1.1" id="Layer_1" xmlns="http://www.w3.org/2000/svg" xmlns:xlink="http://www.w3.org/1999/xlink" x="0px" y="0px"
	 viewBox="0 0 448 512" style="enable-background:new 0 0 448 512;" xml:space="preserve">
<style type="text/css">
	.st0{fill:#FFFFFF;}
</style>
<path class="st0" d="M216.5,36.5l-7.1,7.1c-4.7,4.7-4.7,12.3,0,17L387.9,239H12c-6.6,0-12,5.4-12,12v10c0,6.6,5.4,12,12,12h375.9
	L209.4,451.5c-4.7,4.7-4.7,12.3,0,17l7.1,7.1c4.7,4.7,12.3,4.7,17,0l211.1-211c4.7-4.7,4.7-12.3,0-17L233.4,36.5
	C228.7,31.8,221.2,31.8,216.5,36.5z"/>
</svg>
