<?xml version="1.0" encoding="utf-8"?>
<!-- Generator: Adobe Illustrator 21.1.0, SVG Export Plug-In . SVG Version: 6.00 Build 0)  -->
<svg version="1.1" id="Layer_1" xmlns="http://www.w3.org/2000/svg" xmlns:xlink="http://www.w3.org/1999/xlink" x="0px" y="0px"
	 viewBox="0 0 600 150.4" style="enable-background:new 0 0 600 150.4;" xml:space="preserve">
<style type="text/css">
	.st0{fill:#38A4DD;stroke:#FFFFFF;stroke-width:0.5;stroke-miterlimit:10;}
	.st1{fill:none;stroke:#FFFFFF;stroke-width:0.5;stroke-miterlimit:10;}
	.st2{display:none;fill:none;stroke:#000000;stroke-width:0.1;stroke-miterlimit:10;}
	.st3{fill:none;stroke:#38A4DD;stroke-width:3;stroke-miterlimit:10;}
	.st4{fill:#FFFFFF;}
	.st5{font-family:'Roboto-Regular';}
	.st6{font-size:63.1162px;}
</style>
<rect class="st0" width="600" height="150.4"/>
<g>
	<path class="st1" d="M235.7,100.5l10.8-17.2h7l-14.2,22.3l14.5,22.6l3.5-2.6l-1,11.5l-11.1-3l3.8-2.8L237,112.8l-0.1-0.1l-1.2-2
		l-11.1,17.5h-7l14.5-22.6l-12.4-19.3l-3.9,2.3l2.2-11.1l10.9,3.7l-4.1,2.2l9.2,14.6L235.7,100.5z"/>
	<line class="st2" x1="215.8" y1="129.1" x2="255.4" y2="129.1"/>
	<line class="st2" x1="214.5" y1="90.3" x2="243.6" y2="135"/>
	<line class="st3" x1="237.8" y1="110.6" x2="235.5" y2="114.5"/>
	<line class="st3" x1="235.3" y1="97.6" x2="233.1" y2="101.5"/>
	<text transform="matrix(1 0 0 1 178.4031 128.5152)" class="st4 st5 st6">E  </text>
	<text transform="matrix(1 0 0 1 254.5144 128.5152)" class="st4 st5 st6">CHANGE</text>
	<text transform="matrix(1 0 0 1 102.9109 70.5035)" class="st4 st5 st6">REAL</text>
</g>
</svg>
